<?xml version="1.0" encoding="UTF-8" standalone="no"?>
<svg
   version="1.1"
   width="1079.0294"
   height="920.82343"
   style="clip-rule:evenodd;fill-rule:evenodd;image-rendering:optimizeQuality;shape-rendering:geometricPrecision;text-rendering:geometricPrecision"
   id="svg13"
   sodipodi:docname="utopiapm-logo.svg"
   inkscape:version="1.4 (e7c3feb100, 2024-10-09)"
   xmlns:inkscape="http://www.inkscape.org/namespaces/inkscape"
   xmlns:sodipodi="http://sodipodi.sourceforge.net/DTD/sodipodi-0.dtd"
   xmlns="http://www.w3.org/2000/svg"
   xmlns:svg="http://www.w3.org/2000/svg">
  <defs
     id="defs13" />
  <sodipodi:namedview
     id="namedview13"
     pagecolor="#ffffff"
     bordercolor="#000000"
     borderopacity="0.25"
     inkscape:showpageshadow="2"
     inkscape:pageopacity="0.0"
     inkscape:pagecheckerboard="0"
     inkscape:deskcolor="#d1d1d1"
     inkscape:zoom="0.25"
     inkscape:cx="-600"
     inkscape:cy="124"
     inkscape:window-width="2048"
     inkscape:window-height="1152"
     inkscape:window-x="0"
     inkscape:window-y="0"
     inkscape:window-maximized="1"
     inkscape:current-layer="g11">
    <inkscape:page
       x="0"
       y="0"
       width="1079.0294"
       height="920.82343"
       id="page1"
       margin="0"
       bleed="0" />
  </sodipodi:namedview>
  <g
     id="g1"
     transform="matrix(1,0,0,1.122043,-16.970563,5.3092675)">
    <path
       style="opacity:0.991"
       fill="#000000"
       d="M 548.85355,16.178332 965.5,168 1093.4062,332.23724 v 0.003 L 962.1875,286.73509 961.74112,645.83366 548.50563,801.4727 131.61612,646.73223 133.00628,388.625 21.597272,345.22855 140.97487,168.73744 Z"
       id="path1"
       sodipodi:nodetypes="cccccccccccc" />
  </g>
  <g
     id="g2"
     transform="matrix(1,0,0,1.122043,-16.970563,5.3092675)">
    <path
       style="opacity:1"
       fill="#fefefe"
       d="m 548.5,22.5 v 305 L 148.5,172 Z"
       id="path2"
       sodipodi:nodetypes="cccc" />
  </g>
  <g
     id="g3"
     transform="matrix(1,0,0,1.122043,-16.970563,5.3092675)">
    <path
       style="opacity:1"
       fill="#fefefe"
       d="M 142.2955,176.17417 548.5,334.5 438.88389,498.4453 30.5,342.5 Z"
       id="path3"
       sodipodi:nodetypes="ccccc" />
  </g>
  <g
     id="g4"
     transform="matrix(1,0,0,1.122043,-16.970563,5.3092675)">
    <path
       style="opacity:1"
       fill="#fefefe"
       d="m 955.5,179.5 1,462 -407.99085,151.42299 -0.005,-458.42255 z"
       id="path4"
       sodipodi:nodetypes="ccccc" />
  </g>
  <g
     id="g5"
     transform="matrix(1,0,0,1.122043,-21.470563,-26.690732)">
    <path
       style="opacity:1"
       fill="#000000"
       d="M 933.91421,295.1967 933.5,602.15261 l -45.5,17 L 887.5,317.5 Z"
       id="path5"
       sodipodi:nodetypes="ccccc" />
  </g>
  <g
     id="g6"
     transform="matrix(1,0,0,1.122043,-21.470563,-26.690732)">
    <path
       style="opacity:1"
       fill="#000000"
       d="M 883.36872,333.4471 883.25,450.71227 865,501.5 819.5,518.49219 v 0 z"
       id="path6"
       sodipodi:nodetypes="cccccc" />
  </g>
  <g
     id="g7"
     transform="matrix(1,0,0,1.122043,-21.470563,-26.690732)">
    <path
       style="opacity:1"
       fill="#000000"
       d="m 796,353.03125 -0.004,0.008 0.006,-0.003 42.91221,94.01189 -22.61612,68.20711 L 800.5,481.5 799,652.15261 l -44,17 V 368.5 Z"
       id="path7"
       sodipodi:nodetypes="cccccccccc" />
  </g>
  <g
     id="g8"
     transform="matrix(1,0,0,1.122043,-16.970563,-2.6907325)">
    <path
       style="opacity:1"
       fill="#000000"
       d="m 690.46967,370.32274 46.03033,42.78774 0.0928,69.73667 -46.19454,17.4265 z"
       id="path8"
       sodipodi:nodetypes="ccccc" />
  </g>
  <g
     id="g9"
     transform="matrix(1,0,0,1.122043,-21.470563,-26.690732)">
    <path
       style="opacity:1"
       fill="#000000"
       d="M 690.5221,392.08039 690.5,455.16315 627,480.5 l -1,236.65261 -43.5,17 V 434.5 Z"
       id="path9"
       sodipodi:nodetypes="ccccccc" />
  </g>
  <g
     id="g10"
     transform="matrix(1,0,0,1.122043,-24.970563,1.3092675)">
    <path
       style="opacity:1"
       fill="#fefefe"
       d="m 222.625,421.9948 62.75,24 0.12498,106.98648 -63.03033,-22.21226 z"
       id="path10"
       sodipodi:nodetypes="ccccc" />
  </g>
  <g
     id="g11"
     transform="matrix(1,0,0,1.122043,-16.970563,5.3092675)">
    <path
       style="opacity:1"
       fill="#fefefe"
       d="m 463.01294,471.79289 -0.0129,153.928 -62.5468,38.82322 0.72358,-174.18753 -0.008,-0.004 40.36244,15.09507 z"
       id="path11"
       sodipodi:nodetypes="ccccccc" />
  </g>
  <g
     id="g12"
     transform="matrix(1,0,0,1.122043,-21.470563,-26.690732)">
    <path
       style="opacity:1"
       fill="#000000"
       d="m 739.5,509.5 0.004,0.002 L 694.5,589 631.90901,612.76039 v -62 z"
       id="path12"
       sodipodi:nodetypes="cccccc" />
  </g>
  <g
     id="g13"
     transform="matrix(1,0,0,1.122043,-24.970563,1.3092675)">
    <path
       style="opacity:1"
       fill="#fefefe"
       d="m 222.49854,536.72479 0.001,-0.004 179.64782,63.62016 0.0732,66.6901 -115.96079,-44.20089 -63.76172,-86.10547 z"
       id="path13"
       sodipodi:nodetypes="ccccccc" />
  </g>
</svg>
